<?xml version="1.0" encoding="iso-8859-1"?>
<!-- Uploaded to: SVG Repo, www.svgrepo.com, Generator: SVG Repo Mixer Tools -->
<svg height="800px" width="800px" version="1.1" id="Layer_1" xmlns="http://www.w3.org/2000/svg" xmlns:xlink="http://www.w3.org/1999/xlink" 
	 viewBox="0 0 512 512" xml:space="preserve">
<circle style="fill:#B5F1F4;" cx="256" cy="256" r="256"/>
<path style="fill:#4CDBC4;" d="M85.333,154.953l115.702,115.7h-61.973l2.327,104.579l135.982,135.871
	c128.166-10.595,229.535-115.595,234.422-245.298l-92.022-92.022c0,0-122.092,100.767-133.384,110.085L143.682,141.162
	L85.333,154.953z"/>
<path style="fill:#FC6F58;" d="M347.395,328.139H136.266V173.783h283.507l-44.835,134.504
	C370.986,320.141,359.891,328.139,347.395,328.139z"/>
<path style="fill:#F1543F;" d="M270.941,173.783v154.355h76.452c12.497,0,23.592-7.997,27.543-19.853l44.835-134.504h-148.83
	V173.783z"/>
<path style="fill:#324A5E;" d="M323.105,353.864c-11.816,0-21.745,7.977-24.764,18.83h-59.614
	c-3.017-10.854-12.948-18.83-24.764-18.83s-21.745,7.977-24.764,18.83h-20.509c-13.79,0-25.007-11.219-25.007-25.009V141.162H85.333
	v13.791h44.556v192.734c0,21.394,17.405,38.8,38.798,38.8h20.511c3.017,10.854,12.948,18.83,24.764,18.83s21.745-7.977,24.764-18.83
	h59.614c3.017,10.854,12.948,18.83,24.764,18.83c14.208,0,25.726-11.517,25.726-25.726
	C348.831,365.384,337.313,353.864,323.105,353.864z"/>
<path style="fill:#2B3B4E;" d="M323.105,353.864c-11.816,0-21.745,7.977-24.764,18.83h-27.4v13.791h27.4
	c3.017,10.854,12.948,18.83,24.764,18.83c14.208,0,25.726-11.517,25.726-25.726C348.831,365.384,337.313,353.864,323.105,353.864z"
	/>
</svg>