<?xml version="1.0" encoding="iso-8859-1"?>
<!-- Uploaded to: SVG Repo, www.svgrepo.com, Generator: SVG Repo Mixer Tools -->
<svg version="1.1" id="Layer_1" xmlns="http://www.w3.org/2000/svg" xmlns:xlink="http://www.w3.org/1999/xlink" 
	 viewBox="0 0 512 512" xml:space="preserve">
<path style="fill:#2DB59F;" d="M8.533,401.067c24.746,0,24.746,21.333,49.492,21.333s24.747-21.333,49.492-21.333
	s24.746,21.333,49.491,21.333c24.747,0,24.747-21.333,49.493-21.333c24.746,0,24.746,21.333,49.49,21.333
	c24.746,0,24.746-21.333,49.491-21.333c24.747,0,24.747,21.333,49.493,21.333c24.746,0,24.746-21.333,49.492-21.333
	c24.75,0,24.75,21.333,49.499,21.333c24.75,0,24.75-21.333,49.499-21.333v102.4c0,4.713-3.821,8.533-8.533,8.533H17.067
	c-4.713,0-8.533-3.821-8.533-8.533V401.067z"/>
<path style="fill:#6AC8B7;" d="M8.533,452.267c24.746,0,24.746,21.333,49.492,21.333s24.747-21.333,49.492-21.333
	s24.746,21.333,49.491,21.333c24.747,0,24.747-21.333,49.493-21.333c24.746,0,24.746,21.333,49.49,21.333
	c24.746,0,24.746-21.333,49.491-21.333c24.747,0,24.747,21.333,49.493,21.333c24.746,0,24.746-21.333,49.492-21.333
	c24.75,0,24.75,21.333,49.499,21.333c24.75,0,24.75-21.333,49.499-21.333v51.2c0,4.713-3.821,8.533-8.533,8.533H17.067
	c-4.713,0-8.533-3.821-8.533-8.533V452.267z"/>
<path style="fill:#EBEBEC;" d="M281.6,0h-51.2c-4.713,0-8.533,3.821-8.533,8.533v76.8c0,4.713,3.821,8.533,8.533,8.533h51.2
	c4.713,0,8.533-3.821,8.533-8.533v-76.8C290.133,3.821,286.313,0,281.6,0z"/>
<path style="fill:#D7D8D9;" d="M238.933,85.333v-76.8c0-4.713,3.821-8.533,8.533-8.533H230.4c-4.713,0-8.533,3.821-8.533,8.533v76.8
	c0,4.713,3.821,8.533,8.533,8.533h17.067C242.754,93.867,238.933,90.046,238.933,85.333z"/>
<g>
	<rect x="221.867" y="17.067" style="fill:#E5563C;" width="68.267" height="17.067"/>
	<rect x="221.867" y="51.2" style="fill:#E5563C;" width="68.267" height="17.067"/>
</g>
<g>
	<rect x="221.867" y="51.2" style="fill:#CF442B;" width="17.067" height="17.067"/>
	<rect x="221.867" y="17.067" style="fill:#CF442B;" width="17.067" height="17.067"/>
</g>
<path style="fill:#FDD042;" d="M341.333,76.8H170.667c-4.713,0-8.533,3.821-8.533,8.533V204.8c0,4.713,3.821,8.533,8.533,8.533
	h170.667c4.713,0,8.533-3.821,8.533-8.533V85.333C349.867,80.621,346.046,76.8,341.333,76.8z"/>
<path style="fill:#F2C127;" d="M179.2,204.8V85.333c0-4.713,3.821-8.533,8.533-8.533h-17.067c-4.713,0-8.533,3.821-8.533,8.533
	V204.8c0,4.713,3.821,8.533,8.533,8.533h17.067C183.021,213.333,179.2,209.513,179.2,204.8z"/>
<path style="fill:#AFB0B4;" d="M324.267,102.4h-51.2c-4.713,0-8.533,3.821-8.533,8.533v25.6c0,4.713,3.821,8.533,8.533,8.533h51.2
	c4.713,0,8.533-3.821,8.533-8.533v-25.6C332.8,106.221,328.979,102.4,324.267,102.4z"/>
<rect x="273.067" y="110.933" style="fill:#88898E;" width="51.2" height="25.6"/>
<path style="fill:#AFB0B4;" d="M238.933,102.4h-51.2c-4.713,0-8.533,3.821-8.533,8.533v25.6c0,4.713,3.821,8.533,8.533,8.533h51.2
	c4.713,0,8.533-3.821,8.533-8.533v-25.6C247.467,106.221,243.646,102.4,238.933,102.4z"/>
<rect x="187.733" y="110.933" style="fill:#88898E;" width="51.2" height="25.6"/>
<path style="fill:#AFB0B4;" d="M378.337,205.297L258.87,162.63c-1.856-0.662-3.885-0.662-5.741,0l-119.467,42.667
	c-4.418,1.578-6.734,6.427-5.184,10.855l59.733,170.667c1.198,3.423,4.428,5.714,8.054,5.714h119.467
	c3.626,0,6.857-2.291,8.054-5.714l59.733-170.667C385.071,211.724,382.755,206.875,378.337,205.297z"/>
<path style="fill:#88898E;" d="M133.663,205.297c-4.418,1.578-6.734,6.427-5.184,10.855l59.733,170.667
	c1.198,3.423,4.428,5.714,8.054,5.714h11.857l-67.31-189.791L133.663,205.297z"/>
<path style="fill:#9B9DA1;" d="M256,162.133c-0.971,0-1.942,0.165-2.87,0.497l-112.315,40.112l67.309,189.791H256V162.133z"/>
<circle style="fill:#88898E;" cx="315.733" cy="247.467" r="25.6"/>
<circle style="fill:#606268;" cx="315.733" cy="247.467" r="17.067"/>
<circle style="fill:#88898E;" cx="196.267" cy="247.467" r="25.6"/>
<circle style="fill:#606268;" cx="196.267" cy="247.467" r="17.067"/>
<polygon style="fill:#D7D8D9;" points="256,307.2 171.146,338.057 179.953,363.219 256,332.8 "/>
<polygon style="fill:#C3C4C6;" points="186.786,332.368 171.146,338.057 179.953,363.219 195.519,356.992 "/>
<polygon style="fill:#EBEBEC;" points="256,332.8 332.906,360.766 340.854,338.057 256,307.2 "/>
<path style="fill:#74757B;" d="M258.87,162.63c-1.856-0.662-3.885-0.662-5.741,0l-5.663,2.022v227.881h17.067V164.653L258.87,162.63
	z"/>
</svg>